<?xml version="1.0" encoding="UTF-8"?>
<svg width="215px" height="215px" viewBox="0 0 215 215" version="1.1" xmlns="http://www.w3.org/2000/svg" xmlns:xlink="http://www.w3.org/1999/xlink">
    <!-- Generator: Sketch 48 (47235) - http://www.bohemiancoding.com/sketch -->
    <title>OneHour</title>
    <desc>Created with Sketch.</desc>
    <defs></defs>
    <g id="Page-1" stroke="none" stroke-width="1" fill="none" fill-rule="evenodd">
        <g id="OneHour">
            <circle id="Oval" stroke="#E0E1EF" stroke-width="0.5" cx="107" cy="108" r="104.75"></circle>
            <circle id="Oval" stroke="#E0E1EF" opacity="0" cx="107" cy="108" r="100.5"></circle>
            <path d="M58.8063647,192.491641 C58.6111345,192.373872 58.4186911,192.311504 58.2290288,192.304536 C58.0393664,192.297569 57.8602386,192.333158 57.6916401,192.411304 C57.5230415,192.489451 57.3667175,192.599524 57.2226632,192.741527 C57.078609,192.883529 56.9538973,193.041868 56.8485244,193.216548 C56.7431515,193.391227 56.6612528,193.575393 56.6028258,193.769049 C56.5443988,193.962705 56.5199388,194.152323 56.5294449,194.337908 C56.5389511,194.523494 56.5910135,194.698545 56.6856336,194.863066 C56.7802538,195.027588 56.9251768,195.168732 57.1204069,195.286501 C57.3156371,195.404271 57.5080805,195.466639 57.6977429,195.473606 C57.8874052,195.480574 58.066533,195.444985 58.2351316,195.366838 C58.4037301,195.288692 58.5600542,195.178619 58.7041084,195.036616 C58.8481627,194.894613 58.9728744,194.736275 59.0782473,194.561595 C59.1836201,194.386915 59.2655188,194.20275 59.3239458,194.009094 C59.3823728,193.815438 59.4068329,193.62582 59.3973267,193.440235 C59.3878205,193.254649 59.3357582,193.079598 59.241138,192.915076 C59.1465179,192.750555 59.0015949,192.609411 58.8063647,192.491641 Z M59.1224818,191.967605 C59.396489,192.132896 59.611244,192.332514 59.7667532,192.566467 C59.9222624,192.800419 60.0226811,193.050186 60.0680122,193.315776 C60.1133433,193.581365 60.1060052,193.854886 60.0459976,194.136347 C59.9859901,194.417807 59.8774748,194.688686 59.7204485,194.948993 C59.5613561,195.212725 59.3713194,195.436764 59.1503326,195.621116 C58.9293458,195.805468 58.6908175,195.939527 58.4347406,196.023296 C58.1786637,196.107066 57.9114072,196.133871 57.632963,196.103711 C57.3545187,196.073552 57.0782971,195.975828 56.8042899,195.810538 C56.5302826,195.645247 56.3150111,195.446485 56.1584688,195.214245 C56.0019265,194.982005 55.9009914,194.733094 55.8556602,194.467505 C55.8103291,194.201915 55.8176673,193.928394 55.8776748,193.646934 C55.9376824,193.365473 56.0472307,193.092881 56.2063231,192.829149 C56.3633494,192.568843 56.5523531,192.346516 56.7733399,192.162164 C56.9943267,191.977812 57.2328549,191.843754 57.4889318,191.759984 C57.7450087,191.676214 58.0127818,191.648553 58.2922591,191.677 C58.5717364,191.705447 58.8484745,191.802314 59.1224818,191.967605 Z M61.3732987,193.30064 L62.0696702,193.677907 L62.2861433,197.384578 L62.2966943,197.390295 L63.8000479,194.61536 L64.4278374,194.955472 L62.3871635,198.722209 L61.690792,198.344941 L61.4767364,194.646404 L61.4609098,194.63783 L59.9604143,197.407489 L59.3326249,197.067377 L61.3732987,193.30064 Z M65.1851027,195.236601 L67.958789,196.58483 L67.6755036,197.167627 L65.576352,196.147275 L65.0858486,197.156379 L67.0285082,198.100664 L66.7609609,198.651084 L64.8183012,197.706799 L64.2700916,198.834621 L66.4070172,199.873334 L66.1237318,200.456132 L63.3122716,199.089543 L65.1851027,195.236601 Z M70.0983603,197.429129 L70.7902276,197.718646 L70.1324468,199.290568 L71.9313018,200.04331 L72.5890826,198.471388 L73.2809499,198.760904 L71.6272334,202.71285 L70.9353661,202.423334 L71.6811598,200.641084 L69.8823048,199.888341 L69.1365111,201.670592 L68.4446438,201.381075 L70.0983603,197.429129 Z M75.6058562,200.075448 C75.3918462,199.996807 75.1910711,199.972038 75.0035249,200.001137 C74.8159787,200.030236 74.6468406,200.099125 74.4961055,200.207804 C74.3453703,200.316484 74.2127373,200.454186 74.0982024,200.620914 C73.9836676,200.787641 73.8912204,200.966744 73.8208583,201.158227 C73.7504961,201.349709 73.7049802,201.546057 73.6843094,201.747276 C73.6636385,201.948495 73.6755539,202.139313 73.7200559,202.319734 C73.764558,202.500156 73.8488489,202.662169 73.9729312,202.80578 C74.0970135,202.94939 74.266057,203.060514 74.480067,203.139154 C74.6940769,203.217794 74.894852,203.242564 75.0823982,203.213464 C75.2699445,203.184365 75.4390826,203.115476 75.5898177,203.006797 C75.7405528,202.898117 75.8731858,202.760415 75.9877207,202.593688 C76.1022556,202.42696 76.1947027,202.247857 76.2650649,202.056375 C76.3354271,201.864892 76.3809429,201.668544 76.4016138,201.467325 C76.4222847,201.266106 76.4103693,201.075288 76.3658672,200.894867 C76.3213652,200.714445 76.2370743,200.552432 76.112992,200.408822 C75.9889097,200.265211 75.8198661,200.154088 75.6058562,200.075448 Z M75.8169416,199.501003 C76.1173065,199.611375 76.3659977,199.766681 76.5630228,199.966925 C76.7600479,200.16717 76.9059775,200.393382 77.0008159,200.64557 C77.0956544,200.897757 77.140281,201.167712 77.1346969,201.455444 C77.1291128,201.743176 77.0738949,202.029711 76.9690415,202.315058 C76.8628084,202.604159 76.7186698,202.86015 76.5366214,203.083038 C76.354573,203.305926 76.1457705,203.482757 75.9102077,203.613535 C75.6746448,203.744313 75.4173101,203.821277 75.1381959,203.844428 C74.8590816,203.86758 74.5693464,203.823971 74.2689815,203.713598 C73.9686167,203.603226 73.7195806,203.448859 73.5218657,203.250492 C73.3241507,203.052124 73.1778762,202.82685 73.0830378,202.574663 C72.9881993,202.322476 72.9435727,202.052521 72.9491568,201.764789 C72.9547409,201.477057 73.0106486,201.188645 73.1168817,200.899543 C73.2217351,200.614197 73.3651839,200.360083 73.5472323,200.137195 C73.7292807,199.914307 73.9380832,199.737476 74.173646,199.606698 C74.4092089,199.47592 74.6668885,199.398018 74.9466926,199.372989 C75.2264967,199.34796 75.5165768,199.390631 75.8169416,199.501003 Z M78.2549345,200.374707 L78.9701814,200.600366 L78.219189,202.980708 C78.1758623,203.118036 78.13861,203.259375 78.1074311,203.40473 C78.0762523,203.550085 78.074382,203.688956 78.1018202,203.821347 C78.1292584,203.953738 78.1954388,204.07633 78.3003633,204.189126 C78.4052879,204.301923 78.574095,204.395027 78.8067898,204.468442 C79.0394847,204.541857 79.2311583,204.562483 79.3818166,204.530322 C79.5324749,204.498162 79.6570251,204.435745 79.755471,204.34307 C79.8539169,204.250396 79.9320794,204.135595 79.989961,203.998664 C80.0478425,203.861734 80.0984459,203.724607 80.1417726,203.587279 L80.892765,201.206937 L81.6080119,201.432596 L80.7830034,204.047538 C80.6999606,204.31075 80.5876971,204.52699 80.4462095,204.696265 C80.304722,204.865539 80.1397876,204.992809 79.9514014,205.07808 C79.7630152,205.16335 79.5555992,205.205915 79.3291473,205.205774 C79.1026953,205.205633 78.8635888,205.165848 78.6118207,205.086415 C78.3600525,205.006983 78.1414055,204.902349 77.9558732,204.772509 C77.7703409,204.64267 77.6249053,204.488782 77.519562,204.31084 C77.4142186,204.132898 77.3521836,203.93402 77.333455,203.714198 C77.3147265,203.494376 77.3468831,203.252862 77.429926,202.98965 L78.2549345,200.374707 Z M82.3812026,201.556921 L84.3577169,202.085606 C84.8136893,202.20757 85.129307,202.397578 85.3045795,202.655633 C85.4798521,202.913688 85.5204589,203.218531 85.4264012,203.570171 C85.3736876,203.767244 85.3010377,203.922751 85.2084495,204.036696 C85.1158613,204.150642 85.0203325,204.236885 84.9218602,204.295429 C84.8233879,204.353972 84.7318263,204.390555 84.6471725,204.405177 C84.5625188,204.419799 84.5012536,204.428256 84.4633753,204.430546 L84.4602745,204.442138 C84.520034,204.466404 84.5815221,204.503554 84.6447405,204.553589 C84.7079588,204.603624 84.7614366,204.670721 84.8051754,204.754881 C84.8489141,204.839042 84.8765996,204.940646 84.8882325,205.059695 C84.8998655,205.178745 84.8839766,205.319415 84.8405654,205.481711 C84.7754485,205.725153 84.7346303,205.951284 84.7181095,206.160108 C84.7015887,206.368932 84.7206001,206.526183 84.7751444,206.631867 L83.9984496,206.424114 C83.968124,206.320768 83.9626015,206.213706 83.9818819,206.102925 C84.0011623,205.992144 84.0242389,205.886521 84.0511125,205.786053 C84.101759,205.596708 84.1338356,205.430349 84.1473434,205.286969 C84.1608512,205.143589 84.1488367,205.018228 84.1112996,204.910883 C84.0737624,204.803537 84.0075473,204.714401 83.9126522,204.643471 C83.817757,204.572541 83.6872317,204.514854 83.5210723,204.470409 L82.454566,204.185137 L81.9987503,205.889229 L81.2742216,205.695429 L82.3812026,201.556921 Z M82.6018534,203.634495 L83.7900805,203.952326 C84.0219309,204.014342 84.2124767,204.006306 84.3617236,203.928219 C84.5109706,203.850132 84.6150502,203.700962 84.6739654,203.480704 C84.7091078,203.349322 84.7184693,203.236925 84.70205,203.143509 C84.6856306,203.050093 84.6498116,202.971158 84.5945918,202.906699 C84.539372,202.842241 84.4703584,202.790657 84.3875489,202.751944 C84.3047394,202.713231 84.216966,202.681472 84.1242258,202.656666 L82.9475912,202.341936 L82.6018534,203.634495 Z" id="TimeLabel" fill="#BDBED1"></path>
        </g>
    </g>
</svg>