<?xml version="1.0" encoding="UTF-8"?>
<svg width="215px" height="215px" viewBox="0 0 215 215" version="1.1" xmlns="http://www.w3.org/2000/svg" xmlns:xlink="http://www.w3.org/1999/xlink">
    <!-- Generator: Sketch 48.1 (47250) - http://www.bohemiancoding.com/sketch -->
    <title>OneHour</title>
    <desc>Created with Sketch.</desc>
    <defs></defs>
    <g id="Page-1" stroke="none" stroke-width="1" fill="none" fill-rule="evenodd">
        <g id="OneHour" transform="translate(-45.000000, 0.000000)">
            <g id="hour" transform="translate(47.000000, 3.000000)">
                <circle id="Oval" stroke="#E0E1EF" stroke-width="0.5" cx="105" cy="105" r="104.75"></circle>
                <path d="M43.4624142,181.111613 C43.3170755,180.989233 43.1668091,180.912815 43.0116107,180.882359 C42.8564122,180.851903 42.7043375,180.857847 42.5553821,180.900192 C42.4064267,180.942536 42.2634126,181.012759 42.1263357,181.110861 C41.9892588,181.208964 41.865973,181.323033 41.7564746,181.453073 C41.6469762,181.583113 41.5555624,181.72402 41.4822306,181.875798 C41.4088987,182.027577 41.3640506,182.180458 41.3476849,182.334449 C41.3313192,182.488439 41.3513536,182.639305 41.4077888,182.787052 C41.464224,182.934799 41.5651094,183.069861 41.7104482,183.192242 C41.8557869,183.314622 42.0060532,183.39104 42.1612517,183.421496 C42.3164501,183.451952 42.4685248,183.446008 42.6174803,183.403663 C42.7664357,183.361318 42.9094497,183.291096 43.0465266,183.192993 C43.1836035,183.094891 43.3068893,182.980822 43.4163878,182.850782 C43.5258862,182.720742 43.6173,182.579835 43.6906318,182.428057 C43.7639636,182.276278 43.8088117,182.123396 43.8251774,181.969406 C43.8415431,181.815416 43.8215087,181.66455 43.7650736,181.516803 C43.7086384,181.369056 43.6077529,181.233994 43.4624142,181.111613 Z M43.7909078,180.721495 C43.994892,180.893258 44.1456327,181.085551 44.2431343,181.298381 C44.3406359,181.511212 44.3907325,181.729878 44.3934253,181.954387 C44.3961182,182.178897 44.3544265,182.403069 44.268349,182.62691 C44.1822714,182.850752 44.0576475,183.059562 43.8944734,183.253347 C43.7291522,183.449682 43.5435353,183.609313 43.337617,183.732244 C43.1316988,183.855176 42.917898,183.934426 42.6962082,183.969996 C42.4745185,184.005567 42.2510521,183.992794 42.0258023,183.931677 C41.8005525,183.87056 41.5859387,183.754122 41.3819545,183.58236 C41.1779703,183.410597 41.0266929,183.218941 40.9281178,183.007386 C40.8295426,182.79583 40.7789094,182.577801 40.7762165,182.353292 C40.7735236,182.128783 40.8152153,181.904611 40.9012928,181.680769 C40.9873704,181.456928 41.1130678,181.246842 41.278389,181.050508 C41.4415631,180.856723 41.6261065,180.698367 41.8320248,180.575435 C42.0379431,180.452504 42.2517439,180.373254 42.4734336,180.337683 C42.6951233,180.302113 42.9191265,180.314248 43.1454498,180.37409 C43.3717731,180.433933 43.5869236,180.549733 43.7909078,180.721495 Z M45.475652,182.139712 L45.9964092,182.54519 L45.6667552,185.621735 L45.6746454,185.627878 L47.2904118,183.55274 L47.7598823,183.918284 L45.5666177,186.735107 L45.0458605,186.329629 L45.3763879,183.260101 L45.3645525,183.250886 L43.7518579,185.322079 L43.2823875,184.956535 L45.475652,182.139712 Z M48.3586888,184.284493 L50.4427264,185.788384 L50.1267338,186.226275 L48.5495147,185.088116 L48.0023794,185.846317 L49.4620166,186.899625 L49.1635792,187.313189 L47.7039419,186.259881 L47.0924377,187.107281 L48.6980387,188.265921 L48.3820461,188.703812 L46.2696266,187.17944 L48.3586888,184.284493 Z M52.1014816,186.834141 L52.6247627,187.175904 L51.8482776,188.364798 L53.2088086,189.253382 L53.9852938,188.064487 L54.5085749,188.40625 L52.5564257,191.395232 L52.0331445,191.053469 L52.9135256,189.705497 L51.5529945,188.816913 L50.6726135,190.164886 L50.1493323,189.823123 L52.1014816,186.834141 Z M56.22002,189.870814 C56.0572543,189.772796 55.8968456,189.720944 55.7387893,189.715257 C55.580733,189.70957 55.4314823,189.73934 55.2910326,189.804568 C55.150583,189.869796 55.0203822,189.961621 54.9004262,190.080047 C54.7804703,190.198474 54.6766435,190.330501 54.5889425,190.476133 C54.5012416,190.621766 54.4331085,190.775288 54.384541,190.936705 C54.3359736,191.098122 54.3157094,191.256152 54.3237479,191.410801 C54.3317863,191.565449 54.3752816,191.711292 54.4542352,191.848334 C54.5331887,191.985376 54.6540465,192.102905 54.8168123,192.200923 C54.9795781,192.298942 55.1399867,192.350794 55.298043,192.356481 C55.4560993,192.362168 55.6053501,192.332398 55.7457997,192.26717 C55.8862493,192.201942 56.0164502,192.110117 56.1364061,191.99169 C56.256362,191.873264 56.3601889,191.741237 56.4478898,191.595604 C56.5355907,191.449972 56.6037239,191.296449 56.6522913,191.135033 C56.7008587,190.973616 56.7211229,190.815586 56.7130845,190.660937 C56.705046,190.506288 56.6615507,190.360445 56.5825972,190.223403 C56.5036437,190.086362 56.3827858,189.968833 56.22002,189.870814 Z M56.4831215,189.433919 C56.7115647,189.571489 56.8906526,189.737703 57.0203906,189.932565 C57.1501287,190.127428 57.2339678,190.335504 57.2719107,190.5568 C57.3098535,190.778096 57.3039103,191.006035 57.2540809,191.240623 C57.2042516,191.47521 57.1139924,191.701012 56.9833009,191.918033 C56.8508897,192.137909 56.6926666,192.324727 56.5086268,192.478493 C56.3245871,192.632258 56.1258978,192.744124 55.9125531,192.814093 C55.6992084,192.884062 55.4765116,192.906567 55.2444558,192.881609 C55.0124001,192.856652 54.782154,192.775389 54.5537108,192.637819 C54.3252676,192.500249 54.1457498,192.334749 54.015152,192.141314 C53.8845542,191.94788 53.8002851,191.740517 53.7623423,191.519221 C53.7243994,191.297925 53.7303426,191.069986 53.780172,190.835399 C53.8300013,190.600811 53.9211203,190.373582 54.0535315,190.153705 C54.184223,189.936684 54.3415863,189.751294 54.5256261,189.597528 C54.7096658,189.443763 54.9083551,189.331897 55.1216998,189.261928 C55.3350445,189.191959 55.5581712,189.16874 55.7910868,189.19227 C56.0240024,189.2158 56.2546783,189.296349 56.4831215,189.433919 Z M58.3587468,190.563039 L58.9061832,190.864599 L57.9025917,192.686468 C57.8446919,192.791576 57.7910981,192.900957 57.7418089,193.014614 C57.6925196,193.128271 57.6682398,193.241432 57.6689688,193.3541 C57.6696977,193.466768 57.7036872,193.577776 57.7709381,193.687129 C57.838189,193.796482 57.9608627,193.900211 58.1389628,193.998319 C58.317063,194.096427 58.4702945,194.144683 58.5986619,194.143088 C58.7270292,194.141493 58.8390214,194.1109 58.9346417,194.051307 C59.030262,193.991714 59.1129344,193.910719 59.1826614,193.80832 C59.2523884,193.705921 59.3162008,193.602169 59.3741006,193.497061 L60.3776922,191.675193 L60.9251286,191.976753 L59.8226253,193.97818 C59.7116507,194.179637 59.5844964,194.337928 59.4411585,194.453057 C59.2978206,194.568185 59.1422065,194.645153 58.9743117,194.683961 C58.8064169,194.722769 58.6299702,194.723565 58.4449661,194.68635 C58.2599621,194.649135 58.0711136,194.577454 57.878415,194.471304 C57.6857165,194.365154 57.5242092,194.243839 57.3938883,194.107355 C57.2635674,193.970871 57.1699482,193.821306 57.1130281,193.658657 C57.0561079,193.496007 57.0380038,193.323346 57.0587154,193.140668 C57.0794269,192.957989 57.145269,192.765924 57.2562436,192.564467 L58.3587468,190.563039 Z M61.5453499,192.228271 L63.0678594,192.995727 C63.4190951,193.172776 63.6442579,193.381462 63.7433547,193.621791 C63.8424516,193.862121 63.8237315,194.117716 63.6871941,194.388584 C63.6106731,194.540389 63.5249577,194.654894 63.4300453,194.732103 C63.335133,194.809312 63.2425332,194.863422 63.1522433,194.894433 C63.0619534,194.925445 62.9810362,194.939716 62.9094894,194.937247 C62.8379425,194.934778 62.7865246,194.931257 62.7552342,194.926683 L62.750733,194.935613 C62.7953574,194.965572 62.8392005,195.006337 62.8822638,195.057907 C62.9253271,195.109477 62.9575423,195.17331 62.9789103,195.249406 C63.0002782,195.325503 63.0055834,195.413099 62.9948259,195.512197 C62.9840684,195.611296 62.9471816,195.723351 62.8841643,195.848367 C62.7896384,196.035891 62.7178796,196.213425 62.6688858,196.380972 C62.6198921,196.548519 62.6086566,196.680038 62.635179,196.77553 L62.0368908,196.473949 C62.0297282,196.384482 62.0434318,196.296203 62.0780019,196.209108 C62.112572,196.122012 62.1493618,196.039771 62.1883725,195.96238 C62.2618927,195.816528 62.3163545,195.686268 62.3517597,195.571597 C62.3871649,195.456927 62.3986845,195.352615 62.386319,195.258659 C62.3739535,195.164703 62.3350957,195.080724 62.2697445,195.00672 C62.2043933,194.932717 62.1077228,194.863457 61.9797301,194.798939 L61.1582001,194.384828 L60.4965219,195.69749 L59.9384172,195.416164 L61.5453499,192.228271 Z M61.3720076,193.960668 L62.2872993,194.422043 C62.4658937,194.512067 62.6227063,194.53792 62.7577418,194.4996 C62.8927772,194.46128 63.0030551,194.35729 63.0885785,194.187625 C63.1395925,194.086422 63.1663457,193.996321 63.1688388,193.917321 C63.1713319,193.83832 63.1555361,193.767833 63.121451,193.705857 C63.087366,193.643881 63.0398385,193.590061 62.9788672,193.544395 C62.917896,193.49873 62.8516925,193.457893 62.7802547,193.421883 L61.8738927,192.96501 L61.3720076,193.960668 Z M66.8358226,194.682565 L67.4439464,194.951657 L67.256747,198.772714 L66.6440508,198.501599 L66.7200964,197.501866 L65.4169739,196.92524 L64.7282322,197.653859 L64.1383978,197.39286 L66.8358226,194.682565 Z M65.7646426,196.559657 L66.761417,197.000724 L66.8933113,195.380523 L66.8795943,195.374453 L65.7646426,196.559657 Z M68.5445094,195.381523 L69.1332534,195.619442 L68.7084045,198.392243 L68.717676,198.39599 L70.4080928,196.134621 L71.0014726,196.374413 L70.6276173,199.167822 L70.6368889,199.171569 L72.2763121,196.889592 L72.8650561,197.127511 L70.6142154,200.068402 L70.0254714,199.830483 L70.3854194,197.031455 L70.3761478,197.027708 L68.6764595,199.28533 L68.0784439,199.043665 L68.5445094,195.381523 Z M73.9875397,197.401162 L74.6150245,197.621362 L74.7303325,201.445264 L74.0981297,201.223409 L74.0949433,200.220792 L72.7503329,199.748937 L72.1213166,200.529698 L71.5127034,200.316121 L73.9875397,197.401162 Z M73.0680278,199.357025 L74.0965368,199.717953 L74.099998,198.092395 L74.0858442,198.087428 L73.0680278,199.357025 Z M76.1009187,200.352249 L75.4797469,197.87866 L76.1708136,198.097867 L76.5878155,199.908705 L77.958055,198.664782 L78.6252918,198.876431 L76.6966659,200.541221 L76.2733691,201.875695 L75.6776219,201.686723 L76.1009187,200.352249 Z" id="ONE-HOUR-AWAY-Copy" fill="#BDBED1"></path>
            </g>
            <g id="30min" transform="translate(100.000000, 56.000000)">
                <circle id="Oval" stroke="#E0E1EF" stroke-width="0.5" cx="52.5" cy="52.5" r="52.25"></circle>
                <path d="M19.2105347,84.1606904 C19.2696117,84.2330245 19.3362022,84.2987595 19.410308,84.3578974 C19.4844139,84.4170354 19.5613136,84.4604107 19.6410095,84.4880247 C19.7207053,84.5156386 19.8029506,84.5221601 19.8877476,84.5075894 C19.9725447,84.4930186 20.055019,84.4505443 20.135173,84.380165 C20.2478895,84.2811943 20.3045217,84.163821 20.3050714,84.0280418 C20.3056211,83.8922626 20.2531124,83.7642595 20.1475435,83.6440285 C20.081563,83.5688842 20.0093521,83.516956 19.9309087,83.4882423 C19.8524652,83.4595287 19.7716251,83.4495555 19.6883859,83.4583224 C19.6051467,83.4670893 19.5238942,83.4907473 19.4446261,83.5292971 C19.3653579,83.5678469 19.2930097,83.6180646 19.2275791,83.6799519 L18.851492,83.2516313 C18.9836361,83.1444741 19.1228802,83.0643517 19.2692284,83.0112617 C19.4155767,82.9581717 19.561266,82.9333835 19.7063008,82.9368962 C19.8513356,82.9404089 19.9925806,82.9749716 20.1300399,83.0405854 C20.2674992,83.1061991 20.3945098,83.205382 20.5110754,83.338137 C20.6012487,83.4408343 20.6747426,83.5548473 20.7315592,83.6801796 C20.7883759,83.8055118 20.8226181,83.9329193 20.834287,84.062406 C20.8459559,84.1918926 20.828224,84.3194681 20.7810909,84.4451365 C20.7339577,84.5708049 20.6527817,84.6842224 20.5375604,84.7853925 C20.4048054,84.9019581 20.2625678,84.9736193 20.1108434,85.0003782 C19.9591189,85.027137 19.8046323,84.9964384 19.6473788,84.9082814 L19.6398644,84.9148794 C19.7417677,85.0915603 19.7700688,85.2740881 19.7247685,85.4624684 C19.6794682,85.6508488 19.5716561,85.8198143 19.4013289,85.9693702 C19.2760884,86.0793377 19.1420066,86.1527094 18.9990795,86.1894876 C18.8561525,86.2262657 18.712861,86.2323139 18.5692008,86.2076325 C18.4255405,86.1829511 18.285441,86.130748 18.1488981,86.0510218 C18.0123552,85.9712955 17.8891018,85.8688137 17.7791342,85.7435731 C17.6449738,85.5907796 17.549777,85.4381564 17.4935407,85.2856988 C17.4373044,85.1332413 17.4157235,84.9836268 17.4287973,84.8368508 C17.441871,84.6900749 17.4871707,84.5471652 17.5646976,84.4081174 C17.6422245,84.2690696 17.748769,84.1378132 17.8843342,84.0143441 L18.2604213,84.4426647 C18.0957147,84.5784135 17.9969747,84.7349773 17.9641985,84.9123609 C17.9314223,85.0897445 17.9887116,85.2623448 18.136068,85.4301672 C18.261431,85.5729414 18.407151,85.6568055 18.5732324,85.6817618 C18.7393137,85.7067181 18.8974964,85.6532166 19.0477851,85.5212555 C19.1504823,85.4310822 19.2142929,85.3395662 19.2392188,85.2467048 C19.2641446,85.1538434 19.2636711,85.0611056 19.2377981,84.9684886 C19.2119251,84.8758716 19.1670071,84.7855623 19.1030426,84.6975579 C19.0390782,84.6095535 18.9684556,84.5240704 18.8911729,84.4411062 L19.2105347,84.1606904 Z M22.3964447,85.2393455 C22.5722978,85.4170427 22.6750394,85.6026055 22.7046723,85.7960395 C22.7343053,85.9894735 22.7168108,86.1803017 22.6521882,86.36853 C22.5875657,86.5567583 22.4905758,86.7371545 22.3612156,86.9097242 C22.2318554,87.0822939 22.0960985,87.2389177 21.9539407,87.3796002 C21.811783,87.5202827 21.6537516,87.6543985 21.479842,87.7819516 C21.3059323,87.9095046 21.1245342,88.0046075 20.935642,88.0672631 C20.7467499,88.1299187 20.5557496,88.1454217 20.3626352,88.1137726 C20.1695208,88.0821235 19.9850398,87.977452 19.8091866,87.7997548 C19.6333335,87.6220576 19.5305919,87.4364948 19.500959,87.2430608 C19.471326,87.0496268 19.4888205,86.8587985 19.5534431,86.6705703 C19.6180656,86.482342 19.7150555,86.3019457 19.8444157,86.129376 C19.9737759,85.9568064 20.1095328,85.8001826 20.2516906,85.6595001 C20.3938483,85.5188175 20.5518797,85.3847018 20.7257893,85.2571487 C20.899699,85.1295956 21.0810971,85.0344927 21.2699892,84.9718371 C21.4588814,84.9091816 21.6498817,84.8936785 21.8429961,84.9253276 C22.0361105,84.9569767 22.2205915,85.0616483 22.3964447,85.2393455 Z M20.1468096,87.4656354 C20.2335638,87.5532994 20.3317183,87.6015412 20.4412758,87.6103624 C20.5508334,87.6191835 20.6658493,87.5979809 20.7863268,87.5467538 C20.9068044,87.4955267 21.0321232,87.4195768 21.1622869,87.3189019 C21.2924507,87.2182269 21.4226862,87.1034116 21.5529975,86.9744526 C21.6833088,86.8454937 21.798884,86.717049 21.8997266,86.5891149 C22.0005692,86.4611807 22.0778221,86.336661 22.1314878,86.215552 C22.1851534,86.0944429 22.208147,85.9790683 22.2004691,85.8694247 C22.1927913,85.7597811 22.1455759,85.6611288 22.0588217,85.5734648 C21.9697228,85.4834316 21.8709822,85.4345974 21.7625969,85.4269609 C21.6542117,85.4193244 21.5391897,85.4417056 21.4175275,85.494105 C21.2958653,85.5465044 21.1705465,85.6224543 21.0415674,85.7219569 C20.9125883,85.8214595 20.7829451,85.9356886 20.6526338,86.0646476 C20.5223225,86.1936066 20.406155,86.3226374 20.3041278,86.4517439 C20.2021005,86.5808505 20.1248476,86.7053702 20.0723666,86.8253068 C20.0198855,86.9452435 19.9968981,87.0594396 20.0034036,87.1678986 C20.0099091,87.2763576 20.0577107,87.3756022 20.1468096,87.4656354 Z M24.6385381,87.2038073 L25.3109418,87.7714985 L24.2605109,90.5425714 L24.2681519,90.5490224 L26.8047477,89.0326761 L27.4695105,89.5939162 L25.1664906,92.3217357 L24.711854,91.9378991 L26.4891145,89.8328171 L26.4814735,89.826366 L23.9477589,91.2927955 L23.5542499,90.9605671 L24.5750562,88.2168325 L24.5674152,88.2103815 L22.7901548,90.3154635 L22.3355182,89.9316269 L24.6385381,87.2038073 Z M28.0045661,89.7397888 L28.5179494,90.0962471 L26.4818594,93.0286927 L25.9684761,92.6722344 L28.0045661,89.7397888 Z M29.1139723,90.4718752 L29.6673022,90.8316334 L29.6002778,93.9250632 L29.6086615,93.9305141 L31.0422434,91.725578 L31.5410787,92.0499054 L29.595114,95.0429175 L29.0417841,94.6831594 L29.110275,91.5966469 L29.0976993,91.5884706 L27.6668429,93.7892148 L27.1680076,93.4648873 L29.1139723,90.4718752 Z M31.304184,94.4971137 C31.238719,94.6170816 31.2033171,94.7306684 31.1979772,94.8378777 C31.1926374,94.9450869 31.2117732,95.0457148 31.2553852,95.1397644 C31.2989973,95.2338139 31.3615647,95.3192196 31.4430892,95.395984 C31.5246136,95.4727484 31.6209693,95.541467 31.7321591,95.6021419 C31.852127,95.6676069 31.9621213,95.7095923 32.0621454,95.7280994 C32.1621695,95.7466065 32.2504899,95.748285 32.3271093,95.733135 C32.4037288,95.7179851 32.4693096,95.6882684 32.5238538,95.6439842 C32.5783979,95.5996999 32.6216364,95.5482981 32.6535706,95.4897772 C32.7190356,95.3698093 32.7402698,95.2665284 32.7172737,95.1799314 C32.6942776,95.0933344 32.6569805,95.020769 32.6053811,94.9622331 C32.5165453,94.8605936 32.4082257,94.7511708 32.2804192,94.6339615 C32.1526127,94.5167522 31.9964152,94.3698111 31.8118219,94.1931338 C31.6963843,94.0845727 31.6096125,93.977415 31.5515038,93.8716575 C31.4933952,93.7659 31.4571675,93.6635399 31.4428197,93.564574 C31.4284718,93.4656082 31.4318807,93.3706374 31.4530465,93.2796589 C31.4742122,93.1886803 31.5071485,93.1022277 31.5518563,93.0202984 C31.6380785,92.8622919 31.745641,92.7434639 31.874547,92.663811 C32.003453,92.5841581 32.142793,92.5358329 32.2925711,92.5188339 C32.4423492,92.5018348 32.5959775,92.51257 32.7534605,92.5510397 C32.9109435,92.5895094 33.0599079,92.6470643 33.2003581,92.7237063 C33.3642167,92.8131219 33.5069874,92.9185605 33.6286744,93.0400252 C33.7503615,93.1614899 33.8429147,93.2945862 33.9063369,93.439318 C33.9697591,93.5840499 33.9997263,93.7361558 33.9962392,93.8956404 C33.9927522,94.0551249 33.9463015,94.216794 33.8568859,94.3806526 L33.308255,94.0812715 C33.4037975,93.8713907 33.4128748,93.6912261 33.335487,93.540772 C33.2580992,93.390318 33.1243109,93.2631999 32.9341178,93.1594139 C32.8697448,93.1242863 32.8003172,93.0949444 32.725833,93.0713874 C32.6513487,93.0478303 32.5779276,93.036245 32.5055672,93.036631 C32.4332069,93.037017 32.3643697,93.0535648 32.2990533,93.0862748 C32.233737,93.1189848 32.1795241,93.1748406 32.136413,93.2538438 C32.0757381,93.3650336 32.0626173,93.4708432 32.0970502,93.5712758 C32.1314831,93.6717084 32.1955115,93.768354 32.2891375,93.8612154 C32.299245,93.8705283 32.3385436,93.9081116 32.4070346,93.9739664 C32.4755256,94.0398212 32.5523275,94.1130587 32.6374427,94.1936812 C32.7225579,94.2743037 32.8058765,94.3529959 32.887401,94.4297603 C32.9689255,94.5065247 33.0269758,94.5619351 33.0615536,94.5959932 C33.1464014,94.6840645 33.2116943,94.7766533 33.257434,94.8737626 C33.3031738,94.9708719 33.3320865,95.0692403 33.344173,95.1688708 C33.3562594,95.2685014 33.3523845,95.3660658 33.3325481,95.4615671 C33.3127117,95.5570684 33.28044,95.6457824 33.2357322,95.7277117 C33.1399298,95.9032745 33.0222562,96.0336727 32.882708,96.1189104 C32.7431598,96.204148 32.5933115,96.2543335 32.4331585,96.2694685 C32.2730056,96.2846034 32.1083379,96.2697429 31.9391507,96.2248864 C31.7699635,96.1800299 31.6078321,96.1152898 31.4527517,96.0306643 C31.2742628,95.9332652 31.1179928,95.8195109 30.9839369,95.689398 C30.8498811,95.559285 30.7490827,95.4169429 30.6815387,95.2623671 C30.6139948,95.1077914 30.5838309,94.9403889 30.5910461,94.7601547 C30.5982613,94.5799205 30.6530964,94.3924483 30.7555531,94.1977325 L31.304184,94.4971137 Z M36.9680096,94.4722017 L37.5806758,94.7307846 L37.4592847,98.5544987 L36.842012,98.2939715 L36.9008356,97.293077 L35.5879795,96.7389707 L34.9118832,97.479338 L34.317643,97.228532 L36.9680096,94.4722017 Z M35.929303,96.3674559 L36.9335228,96.7912986 L37.0375054,95.1690663 L37.0236858,95.1632336 L35.929303,96.3674559 Z M38.6005793,95.0457322 L39.2012027,95.2518305 L38.9252239,98.0433822 L38.9346826,98.0466279 L40.5017652,95.6981066 L41.1071179,95.9058278 L40.8831616,98.7152305 L40.8926202,98.7184762 L42.4076803,96.3521038 L43.0083037,96.5582022 L40.9179332,99.6152394 L40.3173098,99.409141 L40.5270781,96.5948698 L40.5176195,96.5916242 L38.9410783,98.9368998 L38.3309962,98.7275557 L38.6005793,95.0457322 Z M44.0103063,96.5413967 L44.6573793,96.6947637 L45.1719734,100.485637 L44.5200352,100.331116 L44.4120087,99.3343315 L43.0254235,99.0056878 L42.4815117,99.8479526 L41.8538995,99.6991981 L44.0103063,96.5413967 Z M43.3003886,98.5826994 L44.3610046,98.834083 L44.1944397,97.2170777 L44.1798441,97.2136183 L43.3003886,98.5826994 Z M46.3997544,99.1550051 L45.4436218,96.7906214 L46.1583039,96.9125006 L46.8208802,98.6485932 L48.0066196,97.2277054 L48.6966574,97.3453818 L47.0158597,99.2600734 L46.7805068,100.640149 L46.1644015,100.535081 L46.3997544,99.1550051 Z" id="30-MINS-AWAY" fill="#BDBED1"></path>
            </g>
        </g>
    </g>
</svg>